#!OML:ASF E:\Steps\Project 1\Capture day 1\Session 2\Subject.ASF
:FULLY-SPECIFIED
:DEGREES
372
root 2.39226 17.2211 20.0546 -71.5152 -81.5288 197.478
lowerback -107.381 14.4536 26.7105
upperback -0.577082 -40.7799 6.05271
thorax 10.659 -21.9608 -12.0591
lowerneck -3.22549 -11.3889 -0.351704
upperneck 25.1719 -16.1117 7.16454
head 9.06822 -6.3424 1.13435
rclavicle 1.90833e-014 -8.5875e-014
rhumerus -51.1826 -16.4662 -77.5464
rradius 34.4762
rwrist -6.03577
rhand -7.21385 -51.9335
rfingers 7.12502
rthumb 18.6651 -81.058
lclavicle 1.90833e-014 -8.5875e-014
lhumerus -30.1684 -9.30268 60.107
lradius 34.442
lwrist 3.18413
lhand -22.2514 -10.059
lfingers 7.12502
lthumb 4.16597 19.88
rfemur 91.9619 -189.157 -123.224
rtibia -11.2387
rfoot -48.0429 -32.4413
rtoes 50.031
lfemur -78.6501 56.6028 91.0557
ltibia 33.7819
lfoot -23.2572 13.4874
ltoes -45.9737
373
root 2.53547 17.078 19.999 -116.217 -69.3311 228.988
lowerback -87.6688 13.8088 31.691
upperback -1.0128 -33.6527 7.69778
thorax 12.6547 -17.1684 -12.6631
lowerneck -3.83004 -11.3571 -0.0811654
upperneck 25.2014 -16.1549 7.1306
head 9.16607 -6.32979 1.03942
rclavicle -5.64548e-014 -1.11319e-013
rhumerus -51.0088 -16.7068 -77.6126
rradius 34.2086
rwrist -5.8888
rhand -6.96382 -51.7023
rfingers 7.12502
rthumb 18.9056 -80.8035
lclavicle -5.64548e-014 -1.11319e-013
lhumerus -29.6661 -9.66881 59.8768
lradius 34.6173
lwrist 3.43606
lhand -22.1541 -10.1889
lfingers 7.12502
lthumb 4.26001 19.7483
rfemur 106.724 -185.668 -120.286
rtibia -9.28309
rfoot -32.9368 -29.3265
rtoes 49.9511
lfemur -78.3766 45.4351 78.4436
ltibia 37.4825
lfoot -23.0397 7.76831
ltoes -46.4054
374
root 2.58139 16.8866 19.8347 -135.791 -44.2847 230.762
lowerback -60.5684 8.38485 32.4693
upperback -1.13119 -22.5297 9.17077
thorax 15.064 -10.3789 -11.6643
lowerneck -3.682 -11.2915 -0.211283
upperneck 25.0119 -16.0354 7.14424
head 9.07782 -6.30588 1.08599
rclavicle -1.04163e-013 8.26944e-014
rhumerus -51.3191 -16.3272 -77.5725
rradius 34.3159
rwrist -6.0805
rhand -6.79301 -51.5462
rfingers 7.12502
rthumb 19.0699 -80.6314
lclavicle -1.04163e-013 8.26944e-014
lhumerus -29.5452 -9.62546 59.889
lradius 34.6723
lwrist 3.31439
lhand -22.0864 -9.99417
lfingers 7.12502
lthumb 4.32532 19.9417
rfemur 124.397 -182.438 -128.339
rtibia -3.07704
rfoot -10.6246 -29.2248
rtoes 27.9237
lfemur -63.2212 30.1615 65.9259
ltibia 39.913
lfoot -22.8237 2.13627
ltoes -43.8498
375
root 2.5484 16.8326 19.5853 -143.686 -18.4953 219.625
lowerback -41.7306 1.66778 20.2788
upperback -0.590549 -12.0301 7.47179
thorax 17.5887 -4.74101 -7.70389
lowerneck -3.51926 -11.2253 -0.348864
upperneck 24.9262 -15.8893 7.05089
head 9.01278 -6.27267 1.10118
rclavicle 2.8625e-014 -6.36111e-015
rhumerus -51.66 -16.0002 -77.3651
rradius 34.4009
rwrist -6.02395
rhand -6.55232 -51.4716
rfingers 7.12502
rthumb 19.3013 -80.5337
lclavicle 2.8625e-014 -6.36111e-015
lhumerus -29.5449 -9.37295 59.9446
lradius 34.7783
lwrist 3.16418
lhand -22.046 -9.85805
lfingers 7.12502
lthumb 4.36436 20.077
rfemur 136.424 -178.975 -145.355
rtibia 2.89941
rfoot 5.28243 -18.897
rtoes -13.0763
lfemur -41.579 13.7403 47.5679
ltibia 34.9084
lfoot -23.1105 4.49326
ltoes -43.0041
376
root 2.5849 16.9094 19.4427 -148.118 -5.8899 208.402
lowerback -34.5374 -2.68156 8.08408
upperback 0.516071 -6.71582 3.71655
thorax 17.9991 -1.92953 -3.1229
lowerneck -3.5368 -11.2618 -0.168649
upperneck 25.052 -15.9057 6.82667
head 9.02529 -6.27414 0.997916
rclavicle 4.77083e-014 -9.54166e-015
rhumerus -52.0023 -15.8476 -77.2277
rradius 34.2762
rwrist -5.92756
rhand -6.36582 -51.5946
rfingers 7.12502
rthumb 19.4807 -80.6387
lclavicle 4.77083e-014 -9.54166e-015
lhumerus -29.66 -9.57596 59.911
lradius 35.0518
lwrist 3.2613
lhand -22.0251 -10.3814
lfingers 7.12502
lthumb 4.38451 19.5533
rfemur 138.948 -170.46 -155.804
rtibia 7.99174
rfoot 10.592 -5.0235
rtoes -26.8562
lfemur -29.8859 1.54599 29.7799
ltibia 29.5377
lfoot -24.1096 9.19173
ltoes -39.9655
377
root 2.68777 16.9754 19.3953 -150.758 -1.76313 202.008
lowerback -31.8334 -4.0144 0.143527
upperback 1.26053 -5.3032 1.88781
thorax 18.4216 -2.14909 -0.279198
lowerneck -3.20931 -11.1739 -0.347086
upperneck 24.4926 -15.7676 6.98466
head 8.79164 -6.26923 1.11441
rclavicle -3.33958e-014 5.40694e-014
rhumerus -51.5555 -15.4252 -77.4014
rradius 34.0423
rwrist -5.92519
rhand -6.2978 -51.8462
rfingers 7.12502
rthumb 19.5461 -80.8837
lclavicle -3.33958e-014 5.40694e-014
lhumerus -29.3276 -9.38253 59.854
lradius 35.2326
lwrist 3.27566
lhand -22.2954 -10.8923
lfingers 7.12502
lthumb 4.12355 19.0476
rfemur 142.831 -173.301 -167.042
rtibia 7.43235
rfoot 9.94995 -8.13244
rtoes -26.2043
lfemur -25.7912 -4.07741 20.6323
ltibia 27.8912
lfoot -24.916 11.2763
ltoes -38.1592
378
root 2.81315 17.0178 19.3923 -152.276 -0.347469 198.355
lowerback -29.3623 -4.86942 -4.4874
upperback 1.40312 -4.71585 0.995023
thorax 17.6925 -2.34567 1.60247
lowerneck -3.43739 -11.2223 -0.179695
upperneck 24.513 -15.8241 6.72972
head 8.80565 -6.30573 0.986162
rclavicle -3.4191e-014 -1.27222e-014
rhumerus -51.7221 -15.2366 -77.3355
rradius 33.9708
rwrist -5.7808
rhand -6.0831 -51.8469
rfingers 7.12502
rthumb 19.7525 -80.8633
lclavicle -3.4191e-014 -1.27222e-014
lhumerus -29.2868 -9.58294 59.8731
lradius 35.4825
lwrist 3.26347
lhand -22.4573 -10.8017
lfingers 7.12502
lthumb 3.96718 19.1411
rfemur 144.915 -176.25 -173.468
rtibia 7.03441
rfoot 9.17031 -11.2329
rtoes -24.7507
lfemur -24.4412 -6.7913 16.2359
ltibia 27.7235
lfoot -25.3458 12.2901
ltoes -38.3701
